<svg xmlns="http://www.w3.org/2000/svg" version="1.1" xmlns:xlink="http://www.w3.org/1999/xlink" xmlns:svgjs="http://svgjs.com/svgjs" width="1440" height="560" preserveAspectRatio="none" viewBox="0 0 1440 560"><g mask="url(&quot;#SvgjsMask1022&quot;)" fill="none"><rect width="1440" height="560" x="0" y="0" fill="#0e2a47"></rect><path d="M-53.7 390.94L-53.7 390.94" stroke="#132e65" stroke-width="1.5"></path><path d="M-53.7 390.94L40.7 383.71" stroke="#132e65" stroke-width="1.5"></path><path d="M-53.7 390.94L-85.54 549.79" stroke="#132e65" stroke-width="1.5"></path><path d="M-53.7 390.94L78.77 545.28" stroke="#132e65" stroke-width="1.5"></path><path d="M-53.7 390.94L44.72 653.55" stroke="#132e65" stroke-width="1.5"></path><path d="M-53.7 390.94L-98.95 669.49" stroke="#132e65" stroke-width="1.5"></path><path d="M-53.7 390.94L222.01 518.4" stroke="#132e65" stroke-width="1.5"></path><path d="M-85.54 549.79L-85.54 549.79" stroke="#132e65" stroke-width="1.5"></path><path d="M-85.54 549.79L-98.95 669.49" stroke="#132e65" stroke-width="1.5"></path><path d="M-85.54 549.79L78.77 545.28" stroke="#132e65" stroke-width="1.5"></path><path d="M-85.54 549.79L44.72 653.55" stroke="#132e65" stroke-width="1.5"></path><path d="M-98.95 669.49L-98.95 669.49" stroke="#132e65" stroke-width="1.5"></path><path d="M40.7 383.71L40.7 383.71" stroke="#132e65" stroke-width="1.5"></path><path d="M40.7 383.71L78.77 545.28" stroke="#132e65" stroke-width="1.5"></path><path d="M40.7 383.71L-85.54 549.79" stroke="#132e65" stroke-width="1.5"></path><path d="M40.7 383.71L222.01 518.4" stroke="#132e65" stroke-width="1.5"></path><path d="M40.7 383.71L44.72 653.55" stroke="#132e65" stroke-width="1.5"></path><path d="M40.7 383.71L-98.95 669.49" stroke="#132e65" stroke-width="1.5"></path><path d="M78.77 545.28L78.77 545.28" stroke="#132e65" stroke-width="1.5"></path><path d="M78.77 545.28L44.72 653.55" stroke="#132e65" stroke-width="1.5"></path><path d="M78.77 545.28L222.01 518.4" stroke="#132e65" stroke-width="1.5"></path><path d="M78.77 545.28L256.05 656.36" stroke="#132e65" stroke-width="1.5"></path><path d="M44.72 653.55L44.72 653.55" stroke="#132e65" stroke-width="1.5"></path><path d="M44.72 653.55L-98.95 669.49" stroke="#132e65" stroke-width="1.5"></path><path d="M44.72 653.55L256.05 656.36" stroke="#132e65" stroke-width="1.5"></path><path d="M222.01 518.4L222.01 518.4" stroke="#132e65" stroke-width="1.5"></path><path d="M222.01 518.4L256.05 656.36" stroke="#132e65" stroke-width="1.5"></path><path d="M222.01 518.4L369.47 557.34" stroke="#132e65" stroke-width="1.5"></path><path d="M222.01 518.4L376.39 373.77" stroke="#132e65" stroke-width="1.5"></path><path d="M222.01 518.4L44.72 653.55" stroke="#132e65" stroke-width="1.5"></path><path d="M256.05 656.36L256.05 656.36" stroke="#132e65" stroke-width="1.5"></path><path d="M256.05 656.36L369.47 557.34" stroke="#132e65" stroke-width="1.5"></path><path d="M376.39 373.77L376.39 373.77" stroke="#132e65" stroke-width="1.5"></path><path d="M376.39 373.77L512.97 364.41" stroke="#132e65" stroke-width="1.5"></path><path d="M376.39 373.77L514.01 491.38" stroke="#132e65" stroke-width="1.5"></path><path d="M376.39 373.77L369.47 557.34" stroke="#132e65" stroke-width="1.5"></path><path d="M369.47 557.34L369.47 557.34" stroke="#132e65" stroke-width="1.5"></path><path d="M369.47 557.34L409.24 709.55" stroke="#132e65" stroke-width="1.5"></path><path d="M369.47 557.34L514.01 491.38" stroke="#132e65" stroke-width="1.5"></path><path d="M369.47 557.34L492.47 697.68" stroke="#132e65" stroke-width="1.5"></path><path d="M409.24 709.55L409.24 709.55" stroke="#132e65" stroke-width="1.5"></path><path d="M409.24 709.55L492.47 697.68" stroke="#132e65" stroke-width="1.5"></path><path d="M409.24 709.55L256.05 656.36" stroke="#132e65" stroke-width="1.5"></path><path d="M409.24 709.55L514.01 491.38" stroke="#132e65" stroke-width="1.5"></path><path d="M409.24 709.55L222.01 518.4" stroke="#132e65" stroke-width="1.5"></path><path d="M409.24 709.55L703.71 705.87" stroke="#132e65" stroke-width="1.5"></path><path d="M512.97 364.41L512.97 364.41" stroke="#132e65" stroke-width="1.5"></path><path d="M512.97 364.41L514.01 491.38" stroke="#132e65" stroke-width="1.5"></path><path d="M512.97 364.41L689.17 410.24" stroke="#132e65" stroke-width="1.5"></path><path d="M512.97 364.41L667.67 246.42" stroke="#132e65" stroke-width="1.5"></path><path d="M514.01 491.38L514.01 491.38" stroke="#132e65" stroke-width="1.5"></path><path d="M514.01 491.38L675.09 490.81" stroke="#132e65" stroke-width="1.5"></path><path d="M492.47 697.68L492.47 697.68" stroke="#132e65" stroke-width="1.5"></path><path d="M492.47 697.68L514.01 491.38" stroke="#132e65" stroke-width="1.5"></path><path d="M492.47 697.68L703.71 705.87" stroke="#132e65" stroke-width="1.5"></path><path d="M492.47 697.68L256.05 656.36" stroke="#132e65" stroke-width="1.5"></path><path d="M492.47 697.68L675.09 490.81" stroke="#132e65" stroke-width="1.5"></path><path d="M667.67 246.42L667.67 246.42" stroke="#132e65" stroke-width="1.5"></path><path d="M667.67 246.42L819 227.39" stroke="#132e65" stroke-width="1.5"></path><path d="M667.67 246.42L689.17 410.24" stroke="#132e65" stroke-width="1.5"></path><path d="M667.67 246.42L832.97 375.65" stroke="#132e65" stroke-width="1.5"></path><path d="M689.17 410.24L689.17 410.24" stroke="#132e65" stroke-width="1.5"></path><path d="M689.17 410.24L675.09 490.81" stroke="#132e65" stroke-width="1.5"></path><path d="M689.17 410.24L832.97 375.65" stroke="#132e65" stroke-width="1.5"></path><path d="M689.17 410.24L800.18 522.76" stroke="#132e65" stroke-width="1.5"></path><path d="M675.09 490.81L675.09 490.81" stroke="#132e65" stroke-width="1.5"></path><path d="M675.09 490.81L800.18 522.76" stroke="#132e65" stroke-width="1.5"></path><path d="M675.09 490.81L832.97 375.65" stroke="#132e65" stroke-width="1.5"></path><path d="M703.71 705.87L703.71 705.87" stroke="#132e65" stroke-width="1.5"></path><path d="M703.71 705.87L802.56 678.28" stroke="#132e65" stroke-width="1.5"></path><path d="M703.71 705.87L800.18 522.76" stroke="#132e65" stroke-width="1.5"></path><path d="M849.43 83.48L849.43 83.48" stroke="#132e65" stroke-width="1.5"></path><path d="M849.43 83.48L954.95 60.62" stroke="#132e65" stroke-width="1.5"></path><path d="M849.43 83.48L819 227.39" stroke="#132e65" stroke-width="1.5"></path><path d="M849.43 83.48L966.03 -42.48" stroke="#132e65" stroke-width="1.5"></path><path d="M849.43 83.48L946.51 247.08" stroke="#132e65" stroke-width="1.5"></path><path d="M849.43 83.48L667.67 246.42" stroke="#132e65" stroke-width="1.5"></path><path d="M819 227.39L819 227.39" stroke="#132e65" stroke-width="1.5"></path><path d="M819 227.39L946.51 247.08" stroke="#132e65" stroke-width="1.5"></path><path d="M819 227.39L832.97 375.65" stroke="#132e65" stroke-width="1.5"></path><path d="M819 227.39L954.95 60.62" stroke="#132e65" stroke-width="1.5"></path><path d="M832.97 375.65L832.97 375.65" stroke="#132e65" stroke-width="1.5"></path><path d="M832.97 375.65L800.18 522.76" stroke="#132e65" stroke-width="1.5"></path><path d="M832.97 375.65L984.03 397" stroke="#132e65" stroke-width="1.5"></path><path d="M800.18 522.76L800.18 522.76" stroke="#132e65" stroke-width="1.5"></path><path d="M800.18 522.76L802.56 678.28" stroke="#132e65" stroke-width="1.5"></path><path d="M802.56 678.28L802.56 678.28" stroke="#132e65" stroke-width="1.5"></path><path d="M802.56 678.28L943.43 696.03" stroke="#132e65" stroke-width="1.5"></path><path d="M802.56 678.28L675.09 490.81" stroke="#132e65" stroke-width="1.5"></path><path d="M802.56 678.28L992.07 506.42" stroke="#132e65" stroke-width="1.5"></path><path d="M966.03 -42.48L966.03 -42.48" stroke="#132e65" stroke-width="1.5"></path><path d="M966.03 -42.48L954.95 60.62" stroke="#132e65" stroke-width="1.5"></path><path d="M954.95 60.62L954.95 60.62" stroke="#132e65" stroke-width="1.5"></path><path d="M946.51 247.08L946.51 247.08" stroke="#132e65" stroke-width="1.5"></path><path d="M946.51 247.08L984.03 397" stroke="#132e65" stroke-width="1.5"></path><path d="M946.51 247.08L832.97 375.65" stroke="#132e65" stroke-width="1.5"></path><path d="M946.51 247.08L954.95 60.62" stroke="#132e65" stroke-width="1.5"></path><path d="M946.51 247.08L1105.98 348.33" stroke="#132e65" stroke-width="1.5"></path><path d="M984.03 397L984.03 397" stroke="#132e65" stroke-width="1.5"></path><path d="M984.03 397L992.07 506.42" stroke="#132e65" stroke-width="1.5"></path><path d="M992.07 506.42L992.07 506.42" stroke="#132e65" stroke-width="1.5"></path><path d="M992.07 506.42L1113.13 505.36" stroke="#132e65" stroke-width="1.5"></path><path d="M992.07 506.42L800.18 522.76" stroke="#132e65" stroke-width="1.5"></path><path d="M992.07 506.42L1105.98 348.33" stroke="#132e65" stroke-width="1.5"></path><path d="M992.07 506.42L943.43 696.03" stroke="#132e65" stroke-width="1.5"></path><path d="M943.43 696.03L943.43 696.03" stroke="#132e65" stroke-width="1.5"></path><path d="M943.43 696.03L800.18 522.76" stroke="#132e65" stroke-width="1.5"></path><path d="M943.43 696.03L703.71 705.87" stroke="#132e65" stroke-width="1.5"></path><path d="M943.43 696.03L1113.13 505.36" stroke="#132e65" stroke-width="1.5"></path><path d="M1149.96 -90.53L1149.96 -90.53" stroke="#132e65" stroke-width="1.5"></path><path d="M1149.96 -90.53L1303.12 -90.56" stroke="#132e65" stroke-width="1.5"></path><path d="M1149.96 -90.53L1142.42 81.57" stroke="#132e65" stroke-width="1.5"></path><path d="M1149.96 -90.53L966.03 -42.48" stroke="#132e65" stroke-width="1.5"></path><path d="M1149.96 -90.53L954.95 60.62" stroke="#132e65" stroke-width="1.5"></path><path d="M1149.96 -90.53L1393.39 51.92" stroke="#132e65" stroke-width="1.5"></path><path d="M1149.96 -90.53L1451.3 -68.64" stroke="#132e65" stroke-width="1.5"></path><path d="M1142.42 81.57L1142.42 81.57" stroke="#132e65" stroke-width="1.5"></path><path d="M1142.42 81.57L1159.2 236.41" stroke="#132e65" stroke-width="1.5"></path><path d="M1142.42 81.57L1274.91 190.12" stroke="#132e65" stroke-width="1.5"></path><path d="M1142.42 81.57L954.95 60.62" stroke="#132e65" stroke-width="1.5"></path><path d="M1159.2 236.41L1159.2 236.41" stroke="#132e65" stroke-width="1.5"></path><path d="M1159.2 236.41L1105.98 348.33" stroke="#132e65" stroke-width="1.5"></path><path d="M1159.2 236.41L1274.91 190.12" stroke="#132e65" stroke-width="1.5"></path><path d="M1105.98 348.33L1105.98 348.33" stroke="#132e65" stroke-width="1.5"></path><path d="M1105.98 348.33L984.03 397" stroke="#132e65" stroke-width="1.5"></path><path d="M1113.13 505.36L1113.13 505.36" stroke="#132e65" stroke-width="1.5"></path><path d="M1113.13 505.36L1105.98 348.33" stroke="#132e65" stroke-width="1.5"></path><path d="M1303.12 -90.56L1303.12 -90.56" stroke="#132e65" stroke-width="1.5"></path><path d="M1303.12 -90.56L1451.3 -68.64" stroke="#132e65" stroke-width="1.5"></path><path d="M1303.12 -90.56L1393.39 51.92" stroke="#132e65" stroke-width="1.5"></path><path d="M1303.12 -90.56L1142.42 81.57" stroke="#132e65" stroke-width="1.5"></path><path d="M1274.91 190.12L1274.91 190.12" stroke="#132e65" stroke-width="1.5"></path><path d="M1274.91 190.12L1415.39 197.38" stroke="#132e65" stroke-width="1.5"></path><path d="M1285.4 375.19L1285.4 375.19" stroke="#132e65" stroke-width="1.5"></path><path d="M1285.4 375.19L1286.06 513.46" stroke="#132e65" stroke-width="1.5"></path><path d="M1285.4 375.19L1459.31 389.47" stroke="#132e65" stroke-width="1.5"></path><path d="M1285.4 375.19L1105.98 348.33" stroke="#132e65" stroke-width="1.5"></path><path d="M1285.4 375.19L1274.91 190.12" stroke="#132e65" stroke-width="1.5"></path><path d="M1285.4 375.19L1159.2 236.41" stroke="#132e65" stroke-width="1.5"></path><path d="M1286.06 513.46L1286.06 513.46" stroke="#132e65" stroke-width="1.5"></path><path d="M1286.06 513.46L1431.75 553.11" stroke="#132e65" stroke-width="1.5"></path><path d="M1239.82 690.84L1239.82 690.84" stroke="#132e65" stroke-width="1.5"></path><path d="M1239.82 690.84L1406.02 669.5" stroke="#132e65" stroke-width="1.5"></path><path d="M1239.82 690.84L1286.06 513.46" stroke="#132e65" stroke-width="1.5"></path><path d="M1239.82 690.84L1113.13 505.36" stroke="#132e65" stroke-width="1.5"></path><path d="M1239.82 690.84L1431.75 553.11" stroke="#132e65" stroke-width="1.5"></path><path d="M1239.82 690.84L943.43 696.03" stroke="#132e65" stroke-width="1.5"></path><path d="M1451.3 -68.64L1451.3 -68.64" stroke="#132e65" stroke-width="1.5"></path><path d="M1451.3 -68.64L1393.39 51.92" stroke="#132e65" stroke-width="1.5"></path><path d="M1451.3 -68.64L1589.03 -63.43" stroke="#132e65" stroke-width="1.5"></path><path d="M1393.39 51.92L1393.39 51.92" stroke="#132e65" stroke-width="1.5"></path><path d="M1393.39 51.92L1415.39 197.38" stroke="#132e65" stroke-width="1.5"></path><path d="M1415.39 197.38L1415.39 197.38" stroke="#132e65" stroke-width="1.5"></path><path d="M1415.39 197.38L1551.61 191.41" stroke="#132e65" stroke-width="1.5"></path><path d="M1415.39 197.38L1459.31 389.47" stroke="#132e65" stroke-width="1.5"></path><path d="M1459.31 389.47L1459.31 389.47" stroke="#132e65" stroke-width="1.5"></path><path d="M1459.31 389.47L1582.27 349.17" stroke="#132e65" stroke-width="1.5"></path><path d="M1459.31 389.47L1552.01 493.42" stroke="#132e65" stroke-width="1.5"></path><path d="M1431.75 553.11L1431.75 553.11" stroke="#132e65" stroke-width="1.5"></path><path d="M1431.75 553.11L1406.02 669.5" stroke="#132e65" stroke-width="1.5"></path><path d="M1431.75 553.11L1552.01 493.42" stroke="#132e65" stroke-width="1.5"></path><path d="M1431.75 553.11L1539.64 667.95" stroke="#132e65" stroke-width="1.5"></path><path d="M1431.75 553.11L1459.31 389.47" stroke="#132e65" stroke-width="1.5"></path><path d="M1431.75 553.11L1285.4 375.19" stroke="#132e65" stroke-width="1.5"></path><path d="M1406.02 669.5L1406.02 669.5" stroke="#132e65" stroke-width="1.5"></path><path d="M1406.02 669.5L1539.64 667.95" stroke="#132e65" stroke-width="1.5"></path><path d="M1406.02 669.5L1286.06 513.46" stroke="#132e65" stroke-width="1.5"></path><path d="M1406.02 669.5L1552.01 493.42" stroke="#132e65" stroke-width="1.5"></path><path d="M1406.02 669.5L1459.31 389.47" stroke="#132e65" stroke-width="1.5"></path><path d="M1589.03 -63.43L1589.03 -63.43" stroke="#132e65" stroke-width="1.5"></path><path d="M1589.03 -63.43L1603.9 37.93" stroke="#132e65" stroke-width="1.5"></path><path d="M1589.03 -63.43L1393.39 51.92" stroke="#132e65" stroke-width="1.5"></path><path d="M1603.9 37.93L1603.9 37.93" stroke="#132e65" stroke-width="1.5"></path><path d="M1603.9 37.93L1551.61 191.41" stroke="#132e65" stroke-width="1.5"></path><path d="M1551.61 191.41L1551.61 191.41" stroke="#132e65" stroke-width="1.5"></path><path d="M1551.61 191.41L1582.27 349.17" stroke="#132e65" stroke-width="1.5"></path><path d="M1551.61 191.41L1393.39 51.92" stroke="#132e65" stroke-width="1.5"></path><path d="M1551.61 191.41L1459.31 389.47" stroke="#132e65" stroke-width="1.5"></path><path d="M1582.27 349.17L1582.27 349.17" stroke="#132e65" stroke-width="1.5"></path><path d="M1582.27 349.17L1552.01 493.42" stroke="#132e65" stroke-width="1.5"></path><path d="M1552.01 493.42L1552.01 493.42" stroke="#132e65" stroke-width="1.5"></path><path d="M1539.64 667.95L1539.64 667.95" stroke="#132e65" stroke-width="1.5"></path><path d="M1539.64 667.95L1552.01 493.42" stroke="#132e65" stroke-width="1.5"></path><path d="M1539.64 667.95L1459.31 389.47" stroke="#132e65" stroke-width="1.5"></path><path d="M1539.64 667.95L1286.06 513.46" stroke="#132e65" stroke-width="1.5"></path><circle r="5" cx="-53.7" cy="390.94" fill="#132e65"></circle><circle r="5" cx="-85.54" cy="549.79" fill="#132e65"></circle><circle r="5" cx="-98.95" cy="669.49" fill="#132e65"></circle><circle r="5" cx="40.7" cy="383.71" fill="#132e65"></circle><circle r="5" cx="78.77" cy="545.28" fill="#132e65"></circle><circle r="5" cx="44.72" cy="653.55" fill="#132e65"></circle><circle r="5" cx="222.01" cy="518.4" fill="#132e65"></circle><circle r="5" cx="256.05" cy="656.36" fill="#132e65"></circle><circle r="5" cx="376.39" cy="373.77" fill="#132e65"></circle><circle r="5" cx="369.47" cy="557.34" fill="#132e65"></circle><circle r="5" cx="409.24" cy="709.55" fill="#132e65"></circle><circle r="5" cx="512.97" cy="364.41" fill="#132e65"></circle><circle r="5" cx="514.01" cy="491.38" fill="#132e65"></circle><circle r="5" cx="492.47" cy="697.68" fill="#132e65"></circle><circle r="5" cx="667.67" cy="246.42" fill="#132e65"></circle><circle r="5" cx="689.17" cy="410.24" fill="#132e65"></circle><circle r="5" cx="675.09" cy="490.81" fill="#132e65"></circle><circle r="5" cx="703.71" cy="705.87" fill="#132e65"></circle><circle r="5" cx="849.43" cy="83.48" fill="#132e65"></circle><circle r="5" cx="819" cy="227.39" fill="#132e65"></circle><circle r="5" cx="832.97" cy="375.65" fill="#132e65"></circle><circle r="5" cx="800.18" cy="522.76" fill="#132e65"></circle><circle r="5" cx="802.56" cy="678.28" fill="#132e65"></circle><circle r="5" cx="966.03" cy="-42.48" fill="#132e65"></circle><circle r="5" cx="954.95" cy="60.62" fill="#132e65"></circle><circle r="5" cx="946.51" cy="247.08" fill="#132e65"></circle><circle r="5" cx="984.03" cy="397" fill="#132e65"></circle><circle r="5" cx="992.07" cy="506.42" fill="#132e65"></circle><circle r="5" cx="943.43" cy="696.03" fill="#132e65"></circle><circle r="5" cx="1149.96" cy="-90.53" fill="#132e65"></circle><circle r="5" cx="1142.42" cy="81.57" fill="#132e65"></circle><circle r="5" cx="1159.2" cy="236.41" fill="#132e65"></circle><circle r="5" cx="1105.98" cy="348.33" fill="#132e65"></circle><circle r="5" cx="1113.13" cy="505.36" fill="#132e65"></circle><circle r="5" cx="1303.12" cy="-90.56" fill="#132e65"></circle><circle r="5" cx="1274.91" cy="190.12" fill="#132e65"></circle><circle r="5" cx="1285.4" cy="375.19" fill="#132e65"></circle><circle r="5" cx="1286.06" cy="513.46" fill="#132e65"></circle><circle r="5" cx="1239.82" cy="690.84" fill="#132e65"></circle><circle r="5" cx="1451.3" cy="-68.64" fill="#132e65"></circle><circle r="5" cx="1393.39" cy="51.92" fill="#132e65"></circle><circle r="5" cx="1415.39" cy="197.38" fill="#132e65"></circle><circle r="5" cx="1459.31" cy="389.47" fill="#132e65"></circle><circle r="5" cx="1431.75" cy="553.11" fill="#132e65"></circle><circle r="5" cx="1406.02" cy="669.5" fill="#132e65"></circle><circle r="5" cx="1589.03" cy="-63.43" fill="#132e65"></circle><circle r="5" cx="1603.9" cy="37.93" fill="#132e65"></circle><circle r="5" cx="1551.61" cy="191.41" fill="#132e65"></circle><circle r="5" cx="1582.27" cy="349.17" fill="#132e65"></circle><circle r="5" cx="1552.01" cy="493.42" fill="#132e65"></circle><circle r="5" cx="1539.64" cy="667.95" fill="#132e65"></circle><path d="M831.79 489.69L831.79 489.69" stroke="hsl(228.5, 77.2%, 51.5%)" stroke-width="1.5"></path><path d="M831.79 489.69L942.18 494.31" stroke="hsl(228.5, 77.2%, 51.5%)" stroke-width="1.5"></path><path d="M831.79 489.69L861.18 370.81" stroke="hsl(228.5, 77.2%, 51.5%)" stroke-width="1.5"></path><path d="M831.79 489.69L975.23 392.32" stroke="hsl(228.5, 77.2%, 51.5%)" stroke-width="1.5"></path><path d="M985.98 261.83L985.98 261.83" stroke="hsl(228.5, 77.2%, 51.5%)" stroke-width="1.5"></path><path d="M985.98 261.83L975.23 392.32" stroke="hsl(228.5, 77.2%, 51.5%)" stroke-width="1.5"></path><path d="M985.98 261.83L1149.75 242.18" stroke="hsl(228.5, 77.2%, 51.5%)" stroke-width="1.5"></path><path d="M942.18 494.31L942.18 494.31" stroke="hsl(228.5, 77.2%, 51.5%)" stroke-width="1.5"></path><path d="M942.18 494.31L975.23 392.32" stroke="hsl(228.5, 77.2%, 51.5%)" stroke-width="1.5"></path><path d="M1149.75 242.18L1149.75 242.18" stroke="hsl(228.5, 77.2%, 51.5%)" stroke-width="1.5"></path><path d="M1149.75 242.18L1266.8 341.93" stroke="hsl(228.5, 77.2%, 51.5%)" stroke-width="1.5"></path><path d="M1149.75 242.18L1304.37 250.75" stroke="hsl(228.5, 77.2%, 51.5%)" stroke-width="1.5"></path><path d="M1452.96 203.94L1452.96 203.94" stroke="hsl(228.5, 77.2%, 51.5%)" stroke-width="1.5"></path><path d="M1452.96 203.94L1562.48 206.74" stroke="hsl(228.5, 77.2%, 51.5%)" stroke-width="1.5"></path><path d="M1452.96 203.94L1304.37 250.75" stroke="hsl(228.5, 77.2%, 51.5%)" stroke-width="1.5"></path><path d="M1452.96 203.94L1394.7 372.27" stroke="hsl(228.5, 77.2%, 51.5%)" stroke-width="1.5"></path><path d="M1452.96 203.94L1604.11 77.21" stroke="hsl(228.5, 77.2%, 51.5%)" stroke-width="1.5"></path><path d="M1452.96 203.94L1577.06 376.94" stroke="hsl(228.5, 77.2%, 51.5%)" stroke-width="1.5"></path><path d="M1452.96 203.94L1266.8 341.93" stroke="hsl(228.5, 77.2%, 51.5%)" stroke-width="1.5"></path><path d="M-97.87 525.78L-97.87 525.78" stroke="hsl(228.5, 77.2%, 51.5%)" stroke-width="1.5"></path><path d="M-97.87 525.78L-65.79 687.53" stroke="hsl(228.5, 77.2%, 51.5%)" stroke-width="1.5"></path><path d="M-97.87 525.78L110.71 527.19" stroke="hsl(228.5, 77.2%, 51.5%)" stroke-width="1.5"></path><path d="M-65.79 687.53L-65.79 687.53" stroke="hsl(228.5, 77.2%, 51.5%)" stroke-width="1.5"></path><path d="M-65.79 687.53L69.52 665.37" stroke="hsl(228.5, 77.2%, 51.5%)" stroke-width="1.5"></path><path d="M-65.79 687.53L110.71 527.19" stroke="hsl(228.5, 77.2%, 51.5%)" stroke-width="1.5"></path><path d="M-65.79 687.53L223.27 668.96" stroke="hsl(228.5, 77.2%, 51.5%)" stroke-width="1.5"></path><path d="M-65.79 687.53L236.9 509.34" stroke="hsl(228.5, 77.2%, 51.5%)" stroke-width="1.5"></path><path d="M110.71 527.19L110.71 527.19" stroke="hsl(228.5, 77.2%, 51.5%)" stroke-width="1.5"></path><path d="M110.71 527.19L236.9 509.34" stroke="hsl(228.5, 77.2%, 51.5%)" stroke-width="1.5"></path><path d="M110.71 527.19L69.52 665.37" stroke="hsl(228.5, 77.2%, 51.5%)" stroke-width="1.5"></path><path d="M110.71 527.19L223.27 668.96" stroke="hsl(228.5, 77.2%, 51.5%)" stroke-width="1.5"></path><path d="M69.52 665.37L69.52 665.37" stroke="hsl(228.5, 77.2%, 51.5%)" stroke-width="1.5"></path><path d="M69.52 665.37L223.27 668.96" stroke="hsl(228.5, 77.2%, 51.5%)" stroke-width="1.5"></path><path d="M69.52 665.37L-97.87 525.78" stroke="hsl(228.5, 77.2%, 51.5%)" stroke-width="1.5"></path><path d="M236.9 509.34L236.9 509.34" stroke="hsl(228.5, 77.2%, 51.5%)" stroke-width="1.5"></path><path d="M236.9 509.34L360.38 505.91" stroke="hsl(228.5, 77.2%, 51.5%)" stroke-width="1.5"></path><path d="M223.27 668.96L223.27 668.96" stroke="hsl(228.5, 77.2%, 51.5%)" stroke-width="1.5"></path><path d="M223.27 668.96L360.37 707.09" stroke="hsl(228.5, 77.2%, 51.5%)" stroke-width="1.5"></path><path d="M360.38 505.91L360.38 505.91" stroke="hsl(228.5, 77.2%, 51.5%)" stroke-width="1.5"></path><path d="M360.38 505.91L511.66 541.35" stroke="hsl(228.5, 77.2%, 51.5%)" stroke-width="1.5"></path><path d="M360.37 707.09L360.37 707.09" stroke="hsl(228.5, 77.2%, 51.5%)" stroke-width="1.5"></path><path d="M360.37 707.09L360.38 505.91" stroke="hsl(228.5, 77.2%, 51.5%)" stroke-width="1.5"></path><path d="M511.66 541.35L511.66 541.35" stroke="hsl(228.5, 77.2%, 51.5%)" stroke-width="1.5"></path><path d="M511.66 541.35L558.36 653.02" stroke="hsl(228.5, 77.2%, 51.5%)" stroke-width="1.5"></path><path d="M511.66 541.35L641.45 552.13" stroke="hsl(228.5, 77.2%, 51.5%)" stroke-width="1.5"></path><path d="M558.36 653.02L558.36 653.02" stroke="hsl(228.5, 77.2%, 51.5%)" stroke-width="1.5"></path><path d="M558.36 653.02L683 652.22" stroke="hsl(228.5, 77.2%, 51.5%)" stroke-width="1.5"></path><path d="M558.36 653.02L641.45 552.13" stroke="hsl(228.5, 77.2%, 51.5%)" stroke-width="1.5"></path><path d="M558.36 653.02L360.37 707.09" stroke="hsl(228.5, 77.2%, 51.5%)" stroke-width="1.5"></path><path d="M558.36 653.02L360.38 505.91" stroke="hsl(228.5, 77.2%, 51.5%)" stroke-width="1.5"></path><path d="M558.36 653.02L851.94 699.06" stroke="hsl(228.5, 77.2%, 51.5%)" stroke-width="1.5"></path><path d="M641.45 552.13L641.45 552.13" stroke="hsl(228.5, 77.2%, 51.5%)" stroke-width="1.5"></path><path d="M641.45 552.13L683 652.22" stroke="hsl(228.5, 77.2%, 51.5%)" stroke-width="1.5"></path><path d="M641.45 552.13L831.79 489.69" stroke="hsl(228.5, 77.2%, 51.5%)" stroke-width="1.5"></path><path d="M641.45 552.13L851.94 699.06" stroke="hsl(228.5, 77.2%, 51.5%)" stroke-width="1.5"></path><path d="M683 652.22L683 652.22" stroke="hsl(228.5, 77.2%, 51.5%)" stroke-width="1.5"></path><path d="M683 652.22L851.94 699.06" stroke="hsl(228.5, 77.2%, 51.5%)" stroke-width="1.5"></path><path d="M683 652.22L511.66 541.35" stroke="hsl(228.5, 77.2%, 51.5%)" stroke-width="1.5"></path><path d="M861.18 370.81L861.18 370.81" stroke="hsl(228.5, 77.2%, 51.5%)" stroke-width="1.5"></path><path d="M861.18 370.81L975.23 392.32" stroke="hsl(228.5, 77.2%, 51.5%)" stroke-width="1.5"></path><path d="M861.18 370.81L942.18 494.31" stroke="hsl(228.5, 77.2%, 51.5%)" stroke-width="1.5"></path><path d="M861.18 370.81L985.98 261.83" stroke="hsl(228.5, 77.2%, 51.5%)" stroke-width="1.5"></path><path d="M851.94 699.06L851.94 699.06" stroke="hsl(228.5, 77.2%, 51.5%)" stroke-width="1.5"></path><path d="M851.94 699.06L962.5 705.92" stroke="hsl(228.5, 77.2%, 51.5%)" stroke-width="1.5"></path><path d="M851.94 699.06L831.79 489.69" stroke="hsl(228.5, 77.2%, 51.5%)" stroke-width="1.5"></path><path d="M851.94 699.06L942.18 494.31" stroke="hsl(228.5, 77.2%, 51.5%)" stroke-width="1.5"></path><path d="M975.23 392.32L975.23 392.32" stroke="hsl(228.5, 77.2%, 51.5%)" stroke-width="1.5"></path><path d="M975.23 392.32L1132.52 530.74" stroke="hsl(228.5, 77.2%, 51.5%)" stroke-width="1.5"></path><path d="M962.5 705.92L962.5 705.92" stroke="hsl(228.5, 77.2%, 51.5%)" stroke-width="1.5"></path><path d="M962.5 705.92L1161.93 651.24" stroke="hsl(228.5, 77.2%, 51.5%)" stroke-width="1.5"></path><path d="M962.5 705.92L942.18 494.31" stroke="hsl(228.5, 77.2%, 51.5%)" stroke-width="1.5"></path><path d="M962.5 705.92L1132.52 530.74" stroke="hsl(228.5, 77.2%, 51.5%)" stroke-width="1.5"></path><path d="M962.5 705.92L831.79 489.69" stroke="hsl(228.5, 77.2%, 51.5%)" stroke-width="1.5"></path><path d="M962.5 705.92L683 652.22" stroke="hsl(228.5, 77.2%, 51.5%)" stroke-width="1.5"></path><path d="M1136.68 74.99L1136.68 74.99" stroke="hsl(228.5, 77.2%, 51.5%)" stroke-width="1.5"></path><path d="M1136.68 74.99L1242.97 59.85" stroke="hsl(228.5, 77.2%, 51.5%)" stroke-width="1.5"></path><path d="M1136.68 74.99L1149.75 242.18" stroke="hsl(228.5, 77.2%, 51.5%)" stroke-width="1.5"></path><path d="M1136.68 74.99L1302.54 -45.22" stroke="hsl(228.5, 77.2%, 51.5%)" stroke-width="1.5"></path><path d="M1136.68 74.99L985.98 261.83" stroke="hsl(228.5, 77.2%, 51.5%)" stroke-width="1.5"></path><path d="M1132.52 530.74L1132.52 530.74" stroke="hsl(228.5, 77.2%, 51.5%)" stroke-width="1.5"></path><path d="M1132.52 530.74L1161.93 651.24" stroke="hsl(228.5, 77.2%, 51.5%)" stroke-width="1.5"></path><path d="M1132.52 530.74L1297.3 550.73" stroke="hsl(228.5, 77.2%, 51.5%)" stroke-width="1.5"></path><path d="M1132.52 530.74L942.18 494.31" stroke="hsl(228.5, 77.2%, 51.5%)" stroke-width="1.5"></path><path d="M1132.52 530.74L1278.11 693.43" stroke="hsl(228.5, 77.2%, 51.5%)" stroke-width="1.5"></path><path d="M1132.52 530.74L1266.8 341.93" stroke="hsl(228.5, 77.2%, 51.5%)" stroke-width="1.5"></path><path d="M1161.93 651.24L1161.93 651.24" stroke="hsl(228.5, 77.2%, 51.5%)" stroke-width="1.5"></path><path d="M1161.93 651.24L1278.11 693.43" stroke="hsl(228.5, 77.2%, 51.5%)" stroke-width="1.5"></path><path d="M1161.93 651.24L1297.3 550.73" stroke="hsl(228.5, 77.2%, 51.5%)" stroke-width="1.5"></path><path d="M1302.54 -45.22L1302.54 -45.22" stroke="hsl(228.5, 77.2%, 51.5%)" stroke-width="1.5"></path><path d="M1302.54 -45.22L1409.2 -55.91" stroke="hsl(228.5, 77.2%, 51.5%)" stroke-width="1.5"></path><path d="M1302.54 -45.22L1242.97 59.85" stroke="hsl(228.5, 77.2%, 51.5%)" stroke-width="1.5"></path><path d="M1302.54 -45.22L1538.3 -108.31" stroke="hsl(228.5, 77.2%, 51.5%)" stroke-width="1.5"></path><path d="M1242.97 59.85L1242.97 59.85" stroke="hsl(228.5, 77.2%, 51.5%)" stroke-width="1.5"></path><path d="M1242.97 59.85L1304.37 250.75" stroke="hsl(228.5, 77.2%, 51.5%)" stroke-width="1.5"></path><path d="M1242.97 59.85L1409.2 -55.91" stroke="hsl(228.5, 77.2%, 51.5%)" stroke-width="1.5"></path><path d="M1242.97 59.85L1149.75 242.18" stroke="hsl(228.5, 77.2%, 51.5%)" stroke-width="1.5"></path><path d="M1242.97 59.85L1452.96 203.94" stroke="hsl(228.5, 77.2%, 51.5%)" stroke-width="1.5"></path><path d="M1304.37 250.75L1304.37 250.75" stroke="hsl(228.5, 77.2%, 51.5%)" stroke-width="1.5"></path><path d="M1304.37 250.75L1266.8 341.93" stroke="hsl(228.5, 77.2%, 51.5%)" stroke-width="1.5"></path><path d="M1304.37 250.75L1394.7 372.27" stroke="hsl(228.5, 77.2%, 51.5%)" stroke-width="1.5"></path><path d="M1266.8 341.93L1266.8 341.93" stroke="hsl(228.5, 77.2%, 51.5%)" stroke-width="1.5"></path><path d="M1266.8 341.93L1394.7 372.27" stroke="hsl(228.5, 77.2%, 51.5%)" stroke-width="1.5"></path><path d="M1266.8 341.93L1297.3 550.73" stroke="hsl(228.5, 77.2%, 51.5%)" stroke-width="1.5"></path><path d="M1297.3 550.73L1297.3 550.73" stroke="hsl(228.5, 77.2%, 51.5%)" stroke-width="1.5"></path><path d="M1297.3 550.73L1434.21 512.01" stroke="hsl(228.5, 77.2%, 51.5%)" stroke-width="1.5"></path><path d="M1297.3 550.73L1278.11 693.43" stroke="hsl(228.5, 77.2%, 51.5%)" stroke-width="1.5"></path><path d="M1278.11 693.43L1278.11 693.43" stroke="hsl(228.5, 77.2%, 51.5%)" stroke-width="1.5"></path><path d="M1278.11 693.43L1434.21 512.01" stroke="hsl(228.5, 77.2%, 51.5%)" stroke-width="1.5"></path><path d="M1278.11 693.43L1543.67 666.54" stroke="hsl(228.5, 77.2%, 51.5%)" stroke-width="1.5"></path><path d="M1278.11 693.43L962.5 705.92" stroke="hsl(228.5, 77.2%, 51.5%)" stroke-width="1.5"></path><path d="M1409.2 -55.91L1409.2 -55.91" stroke="hsl(228.5, 77.2%, 51.5%)" stroke-width="1.5"></path><path d="M1409.2 -55.91L1538.3 -108.31" stroke="hsl(228.5, 77.2%, 51.5%)" stroke-width="1.5"></path><path d="M1394.7 372.27L1394.7 372.27" stroke="hsl(228.5, 77.2%, 51.5%)" stroke-width="1.5"></path><path d="M1394.7 372.27L1434.21 512.01" stroke="hsl(228.5, 77.2%, 51.5%)" stroke-width="1.5"></path><path d="M1434.21 512.01L1434.21 512.01" stroke="hsl(228.5, 77.2%, 51.5%)" stroke-width="1.5"></path><path d="M1434.21 512.01L1565.79 552.14" stroke="hsl(228.5, 77.2%, 51.5%)" stroke-width="1.5"></path><path d="M1434.21 512.01L1543.67 666.54" stroke="hsl(228.5, 77.2%, 51.5%)" stroke-width="1.5"></path><path d="M1434.21 512.01L1577.06 376.94" stroke="hsl(228.5, 77.2%, 51.5%)" stroke-width="1.5"></path><path d="M1538.3 -108.31L1538.3 -108.31" stroke="hsl(228.5, 77.2%, 51.5%)" stroke-width="1.5"></path><path d="M1538.3 -108.31L1604.11 77.21" stroke="hsl(228.5, 77.2%, 51.5%)" stroke-width="1.5"></path><path d="M1538.3 -108.31L1562.48 206.74" stroke="hsl(228.5, 77.2%, 51.5%)" stroke-width="1.5"></path><path d="M1538.3 -108.31L1452.96 203.94" stroke="hsl(228.5, 77.2%, 51.5%)" stroke-width="1.5"></path><path d="M1538.3 -108.31L1242.97 59.85" stroke="hsl(228.5, 77.2%, 51.5%)" stroke-width="1.5"></path><path d="M1604.11 77.21L1604.11 77.21" stroke="hsl(228.5, 77.2%, 51.5%)" stroke-width="1.5"></path><path d="M1604.11 77.21L1562.48 206.74" stroke="hsl(228.5, 77.2%, 51.5%)" stroke-width="1.5"></path><path d="M1562.48 206.74L1562.48 206.74" stroke="hsl(228.5, 77.2%, 51.5%)" stroke-width="1.5"></path><path d="M1562.48 206.74L1577.06 376.94" stroke="hsl(228.5, 77.2%, 51.5%)" stroke-width="1.5"></path><path d="M1562.48 206.74L1394.7 372.27" stroke="hsl(228.5, 77.2%, 51.5%)" stroke-width="1.5"></path><path d="M1577.06 376.94L1577.06 376.94" stroke="hsl(228.5, 77.2%, 51.5%)" stroke-width="1.5"></path><path d="M1577.06 376.94L1565.79 552.14" stroke="hsl(228.5, 77.2%, 51.5%)" stroke-width="1.5"></path><path d="M1565.79 552.14L1565.79 552.14" stroke="hsl(228.5, 77.2%, 51.5%)" stroke-width="1.5"></path><path d="M1565.79 552.14L1543.67 666.54" stroke="hsl(228.5, 77.2%, 51.5%)" stroke-width="1.5"></path><path d="M1565.79 552.14L1394.7 372.27" stroke="hsl(228.5, 77.2%, 51.5%)" stroke-width="1.5"></path><path d="M1565.79 552.14L1297.3 550.73" stroke="hsl(228.5, 77.2%, 51.5%)" stroke-width="1.5"></path><path d="M1543.67 666.54L1543.67 666.54" stroke="hsl(228.5, 77.2%, 51.5%)" stroke-width="1.5"></path><path d="M1543.67 666.54L1297.3 550.73" stroke="hsl(228.5, 77.2%, 51.5%)" stroke-width="1.5"></path><path d="M1543.67 666.54L1577.06 376.94" stroke="hsl(228.5, 77.2%, 51.5%)" stroke-width="1.5"></path><circle r="25" cx="831.79" cy="489.69" fill="url(#SvgjsRadialGradient1023)"></circle><circle r="25" cx="985.98" cy="261.83" fill="url(#SvgjsRadialGradient1023)"></circle><circle r="25" cx="942.18" cy="494.31" fill="url(#SvgjsRadialGradient1023)"></circle><circle r="25" cx="1149.75" cy="242.18" fill="url(#SvgjsRadialGradient1023)"></circle><circle r="25" cx="1452.96" cy="203.94" fill="url(#SvgjsRadialGradient1023)"></circle><circle r="5" cx="-97.87" cy="525.78" fill="#8b9ad9"></circle><circle r="5" cx="-65.79" cy="687.53" fill="#8b9ad9"></circle><circle r="5" cx="110.71" cy="527.19" fill="#8b9ad9"></circle><circle r="5" cx="69.52" cy="665.37" fill="#8b9ad9"></circle><circle r="5" cx="236.9" cy="509.34" fill="#8b9ad9"></circle><circle r="5" cx="223.27" cy="668.96" fill="#8b9ad9"></circle><circle r="5" cx="360.38" cy="505.91" fill="#8b9ad9"></circle><circle r="5" cx="360.37" cy="707.09" fill="#8b9ad9"></circle><circle r="5" cx="511.66" cy="541.35" fill="#8b9ad9"></circle><circle r="5" cx="558.36" cy="653.02" fill="#8b9ad9"></circle><circle r="5" cx="641.45" cy="552.13" fill="#8b9ad9"></circle><circle r="5" cx="683" cy="652.22" fill="#8b9ad9"></circle><circle r="5" cx="861.18" cy="370.81" fill="#8b9ad9"></circle><circle r="5" cx="851.94" cy="699.06" fill="#8b9ad9"></circle><circle r="5" cx="975.23" cy="392.32" fill="#8b9ad9"></circle><circle r="5" cx="962.5" cy="705.92" fill="#8b9ad9"></circle><circle r="5" cx="1136.68" cy="74.99" fill="#8b9ad9"></circle><circle r="5" cx="1132.52" cy="530.74" fill="#8b9ad9"></circle><circle r="5" cx="1161.93" cy="651.24" fill="#8b9ad9"></circle><circle r="5" cx="1302.54" cy="-45.22" fill="#8b9ad9"></circle><circle r="5" cx="1242.97" cy="59.85" fill="#8b9ad9"></circle><circle r="5" cx="1304.37" cy="250.75" fill="#8b9ad9"></circle><circle r="5" cx="1266.8" cy="341.93" fill="#8b9ad9"></circle><circle r="5" cx="1297.3" cy="550.73" fill="#8b9ad9"></circle><circle r="5" cx="1278.11" cy="693.43" fill="#8b9ad9"></circle><circle r="5" cx="1409.2" cy="-55.91" fill="#8b9ad9"></circle><circle r="5" cx="1394.7" cy="372.27" fill="#8b9ad9"></circle><circle r="5" cx="1434.21" cy="512.01" fill="#8b9ad9"></circle><circle r="5" cx="1538.3" cy="-108.31" fill="#8b9ad9"></circle><circle r="5" cx="1604.11" cy="77.21" fill="#8b9ad9"></circle><circle r="5" cx="1562.48" cy="206.74" fill="#8b9ad9"></circle><circle r="5" cx="1577.06" cy="376.94" fill="#8b9ad9"></circle><circle r="5" cx="1565.79" cy="552.14" fill="#8b9ad9"></circle><circle r="5" cx="1543.67" cy="666.54" fill="#8b9ad9"></circle></g><defs><mask id="SvgjsMask1022"><rect width="1440" height="560" fill="#ffffff"></rect></mask><radialGradient id="SvgjsRadialGradient1023"><stop stop-color="#ffffff" offset="0.1"></stop><stop stop-color="#1735b3" offset="0.2"></stop><stop stop-color="rgba(23, 53, 179, 0)" offset="1"></stop></radialGradient></defs></svg>