<svg xmlns="http://www.w3.org/2000/svg" version="1.1" xmlns:xlink="http://www.w3.org/1999/xlink" xmlns:svgjs="http://svgjs.com/svgjs" width="1440" height="560" preserveAspectRatio="none" viewBox="0 0 1440 560"><g mask="url(&quot;#SvgjsMask1005&quot;)" fill="none"><rect width="1440" height="560" x="0" y="0" fill="url(#SvgjsLinearGradient1006)"></rect><path d="M-38.38 400.81L-38.38 400.81" stroke="#132e65" stroke-width="1.5"></path><path d="M-38.38 400.81L85.27 395.54" stroke="#132e65" stroke-width="1.5"></path><path d="M-38.38 400.81L-45.98 546.06" stroke="#132e65" stroke-width="1.5"></path><path d="M-38.38 400.81L260.74 381.1" stroke="#132e65" stroke-width="1.5"></path><path d="M-38.38 400.81L190.88 642.66" stroke="#132e65" stroke-width="1.5"></path><path d="M-45.98 546.06L-45.98 546.06" stroke="#132e65" stroke-width="1.5"></path><path d="M-45.98 546.06L85.27 395.54" stroke="#132e65" stroke-width="1.5"></path><path d="M-45.98 546.06L190.88 642.66" stroke="#132e65" stroke-width="1.5"></path><path d="M-45.98 546.06L260.74 381.1" stroke="#132e65" stroke-width="1.5"></path><path d="M-45.98 546.06L358.24 539.64" stroke="#132e65" stroke-width="1.5"></path><path d="M85.27 395.54L85.27 395.54" stroke="#132e65" stroke-width="1.5"></path><path d="M85.27 395.54L260.74 381.1" stroke="#132e65" stroke-width="1.5"></path><path d="M85.27 395.54L190.88 642.66" stroke="#132e65" stroke-width="1.5"></path><path d="M85.27 395.54L358.24 539.64" stroke="#132e65" stroke-width="1.5"></path><path d="M85.27 395.54L402.7 353.02" stroke="#132e65" stroke-width="1.5"></path><path d="M260.74 381.1L260.74 381.1" stroke="#132e65" stroke-width="1.5"></path><path d="M260.74 381.1L402.7 353.02" stroke="#132e65" stroke-width="1.5"></path><path d="M190.88 642.66L190.88 642.66" stroke="#132e65" stroke-width="1.5"></path><path d="M190.88 642.66L371.54 684.53" stroke="#132e65" stroke-width="1.5"></path><path d="M190.88 642.66L358.24 539.64" stroke="#132e65" stroke-width="1.5"></path><path d="M402.7 353.02L402.7 353.02" stroke="#132e65" stroke-width="1.5"></path><path d="M402.7 353.02L514.73 368.12" stroke="#132e65" stroke-width="1.5"></path><path d="M402.7 353.02L492.91 509.99" stroke="#132e65" stroke-width="1.5"></path><path d="M358.24 539.64L358.24 539.64" stroke="#132e65" stroke-width="1.5"></path><path d="M358.24 539.64L492.91 509.99" stroke="#132e65" stroke-width="1.5"></path><path d="M358.24 539.64L371.54 684.53" stroke="#132e65" stroke-width="1.5"></path><path d="M358.24 539.64L260.74 381.1" stroke="#132e65" stroke-width="1.5"></path><path d="M358.24 539.64L402.7 353.02" stroke="#132e65" stroke-width="1.5"></path><path d="M371.54 684.53L371.54 684.53" stroke="#132e65" stroke-width="1.5"></path><path d="M371.54 684.53L543.57 674.66" stroke="#132e65" stroke-width="1.5"></path><path d="M371.54 684.53L492.91 509.99" stroke="#132e65" stroke-width="1.5"></path><path d="M514.73 368.12L514.73 368.12" stroke="#132e65" stroke-width="1.5"></path><path d="M514.73 368.12L492.91 509.99" stroke="#132e65" stroke-width="1.5"></path><path d="M514.73 368.12L646.47 254.63" stroke="#132e65" stroke-width="1.5"></path><path d="M492.91 509.99L492.91 509.99" stroke="#132e65" stroke-width="1.5"></path><path d="M543.57 674.66L543.57 674.66" stroke="#132e65" stroke-width="1.5"></path><path d="M543.57 674.66L655.03 645.5" stroke="#132e65" stroke-width="1.5"></path><path d="M543.57 674.66L492.91 509.99" stroke="#132e65" stroke-width="1.5"></path><path d="M543.57 674.66L358.24 539.64" stroke="#132e65" stroke-width="1.5"></path><path d="M646.47 254.63L646.47 254.63" stroke="#132e65" stroke-width="1.5"></path><path d="M646.47 254.63L704.39 344.19" stroke="#132e65" stroke-width="1.5"></path><path d="M646.47 254.63L804.22 228.4" stroke="#132e65" stroke-width="1.5"></path><path d="M704.39 344.19L704.39 344.19" stroke="#132e65" stroke-width="1.5"></path><path d="M704.39 344.19L820.6 374.75" stroke="#132e65" stroke-width="1.5"></path><path d="M704.39 344.19L804.22 228.4" stroke="#132e65" stroke-width="1.5"></path><path d="M704.39 344.19L514.73 368.12" stroke="#132e65" stroke-width="1.5"></path><path d="M704.39 344.19L800.66 550.33" stroke="#132e65" stroke-width="1.5"></path><path d="M655.03 645.5L655.03 645.5" stroke="#132e65" stroke-width="1.5"></path><path d="M655.03 645.5L800.66 550.33" stroke="#132e65" stroke-width="1.5"></path><path d="M655.03 645.5L840.95 664.19" stroke="#132e65" stroke-width="1.5"></path><path d="M655.03 645.5L492.91 509.99" stroke="#132e65" stroke-width="1.5"></path><path d="M804.22 228.4L804.22 228.4" stroke="#132e65" stroke-width="1.5"></path><path d="M804.22 228.4L943.04 219.54" stroke="#132e65" stroke-width="1.5"></path><path d="M804.22 228.4L820.6 374.75" stroke="#132e65" stroke-width="1.5"></path><path d="M820.6 374.75L820.6 374.75" stroke="#132e65" stroke-width="1.5"></path><path d="M820.6 374.75L977.78 345.66" stroke="#132e65" stroke-width="1.5"></path><path d="M820.6 374.75L800.66 550.33" stroke="#132e65" stroke-width="1.5"></path><path d="M820.6 374.75L943.04 219.54" stroke="#132e65" stroke-width="1.5"></path><path d="M820.6 374.75L646.47 254.63" stroke="#132e65" stroke-width="1.5"></path><path d="M800.66 550.33L800.66 550.33" stroke="#132e65" stroke-width="1.5"></path><path d="M800.66 550.33L840.95 664.19" stroke="#132e65" stroke-width="1.5"></path><path d="M800.66 550.33L990.48 534.84" stroke="#132e65" stroke-width="1.5"></path><path d="M840.95 664.19L840.95 664.19" stroke="#132e65" stroke-width="1.5"></path><path d="M840.95 664.19L994.28 687.77" stroke="#132e65" stroke-width="1.5"></path><path d="M957.35 -91.63L957.35 -91.63" stroke="#132e65" stroke-width="1.5"></path><path d="M957.35 -91.63L1106.68 -60.98" stroke="#132e65" stroke-width="1.5"></path><path d="M957.35 -91.63L959.3 103.87" stroke="#132e65" stroke-width="1.5"></path><path d="M959.3 103.87L959.3 103.87" stroke="#132e65" stroke-width="1.5"></path><path d="M959.3 103.87L943.04 219.54" stroke="#132e65" stroke-width="1.5"></path><path d="M959.3 103.87L1137.94 110.35" stroke="#132e65" stroke-width="1.5"></path><path d="M943.04 219.54L943.04 219.54" stroke="#132e65" stroke-width="1.5"></path><path d="M943.04 219.54L977.78 345.66" stroke="#132e65" stroke-width="1.5"></path><path d="M977.78 345.66L977.78 345.66" stroke="#132e65" stroke-width="1.5"></path><path d="M977.78 345.66L1096.54 352.98" stroke="#132e65" stroke-width="1.5"></path><path d="M977.78 345.66L1096.17 256.66" stroke="#132e65" stroke-width="1.5"></path><path d="M977.78 345.66L990.48 534.84" stroke="#132e65" stroke-width="1.5"></path><path d="M990.48 534.84L990.48 534.84" stroke="#132e65" stroke-width="1.5"></path><path d="M990.48 534.84L994.28 687.77" stroke="#132e65" stroke-width="1.5"></path><path d="M990.48 534.84L1153.85 531.62" stroke="#132e65" stroke-width="1.5"></path><path d="M994.28 687.77L994.28 687.77" stroke="#132e65" stroke-width="1.5"></path><path d="M994.28 687.77L1128.37 675.08" stroke="#132e65" stroke-width="1.5"></path><path d="M1106.68 -60.98L1106.68 -60.98" stroke="#132e65" stroke-width="1.5"></path><path d="M1106.68 -60.98L1137.94 110.35" stroke="#132e65" stroke-width="1.5"></path><path d="M1137.94 110.35L1137.94 110.35" stroke="#132e65" stroke-width="1.5"></path><path d="M1137.94 110.35L1277.39 71.32" stroke="#132e65" stroke-width="1.5"></path><path d="M1137.94 110.35L1096.17 256.66" stroke="#132e65" stroke-width="1.5"></path><path d="M1137.94 110.35L1241.2 247.7" stroke="#132e65" stroke-width="1.5"></path><path d="M1096.17 256.66L1096.17 256.66" stroke="#132e65" stroke-width="1.5"></path><path d="M1096.17 256.66L1096.54 352.98" stroke="#132e65" stroke-width="1.5"></path><path d="M1096.17 256.66L1241.2 247.7" stroke="#132e65" stroke-width="1.5"></path><path d="M1096.17 256.66L943.04 219.54" stroke="#132e65" stroke-width="1.5"></path><path d="M1096.54 352.98L1096.54 352.98" stroke="#132e65" stroke-width="1.5"></path><path d="M1153.85 531.62L1153.85 531.62" stroke="#132e65" stroke-width="1.5"></path><path d="M1153.85 531.62L1128.37 675.08" stroke="#132e65" stroke-width="1.5"></path><path d="M1153.85 531.62L1311.55 552.77" stroke="#132e65" stroke-width="1.5"></path><path d="M1128.37 675.08L1128.37 675.08" stroke="#132e65" stroke-width="1.5"></path><path d="M1128.37 675.08L1285.88 703.43" stroke="#132e65" stroke-width="1.5"></path><path d="M1128.37 675.08L990.48 534.84" stroke="#132e65" stroke-width="1.5"></path><path d="M1128.37 675.08L1311.55 552.77" stroke="#132e65" stroke-width="1.5"></path><path d="M1128.37 675.08L1387.84 653.36" stroke="#132e65" stroke-width="1.5"></path><path d="M1277.39 71.32L1277.39 71.32" stroke="#132e65" stroke-width="1.5"></path><path d="M1277.39 71.32L1449.31 50.95" stroke="#132e65" stroke-width="1.5"></path><path d="M1277.39 71.32L1241.2 247.7" stroke="#132e65" stroke-width="1.5"></path><path d="M1241.2 247.7L1241.2 247.7" stroke="#132e65" stroke-width="1.5"></path><path d="M1241.2 247.7L1096.54 352.98" stroke="#132e65" stroke-width="1.5"></path><path d="M1311.55 552.77L1311.55 552.77" stroke="#132e65" stroke-width="1.5"></path><path d="M1311.55 552.77L1387.84 653.36" stroke="#132e65" stroke-width="1.5"></path><path d="M1311.55 552.77L1441.66 550.93" stroke="#132e65" stroke-width="1.5"></path><path d="M1311.55 552.77L1285.88 703.43" stroke="#132e65" stroke-width="1.5"></path><path d="M1285.88 703.43L1285.88 703.43" stroke="#132e65" stroke-width="1.5"></path><path d="M1285.88 703.43L1387.84 653.36" stroke="#132e65" stroke-width="1.5"></path><path d="M1285.88 703.43L1153.85 531.62" stroke="#132e65" stroke-width="1.5"></path><path d="M1285.88 703.43L1441.66 550.93" stroke="#132e65" stroke-width="1.5"></path><path d="M1433.72 -77.66L1433.72 -77.66" stroke="#132e65" stroke-width="1.5"></path><path d="M1433.72 -77.66L1449.31 50.95" stroke="#132e65" stroke-width="1.5"></path><path d="M1433.72 -77.66L1566.89 -56.3" stroke="#132e65" stroke-width="1.5"></path><path d="M1433.72 -77.66L1562.78 83.03" stroke="#132e65" stroke-width="1.5"></path><path d="M1433.72 -77.66L1277.39 71.32" stroke="#132e65" stroke-width="1.5"></path><path d="M1433.72 -77.66L1440.84 237.35" stroke="#132e65" stroke-width="1.5"></path><path d="M1433.72 -77.66L1106.68 -60.98" stroke="#132e65" stroke-width="1.5"></path><path d="M1449.31 50.95L1449.31 50.95" stroke="#132e65" stroke-width="1.5"></path><path d="M1449.31 50.95L1562.78 83.03" stroke="#132e65" stroke-width="1.5"></path><path d="M1449.31 50.95L1566.89 -56.3" stroke="#132e65" stroke-width="1.5"></path><path d="M1449.31 50.95L1440.84 237.35" stroke="#132e65" stroke-width="1.5"></path><path d="M1449.31 50.95L1602.61 233.36" stroke="#132e65" stroke-width="1.5"></path><path d="M1440.84 237.35L1440.84 237.35" stroke="#132e65" stroke-width="1.5"></path><path d="M1440.84 237.35L1602.61 233.36" stroke="#132e65" stroke-width="1.5"></path><path d="M1440.84 237.35L1418.09 405.14" stroke="#132e65" stroke-width="1.5"></path><path d="M1440.84 237.35L1562.78 83.03" stroke="#132e65" stroke-width="1.5"></path><path d="M1440.84 237.35L1241.2 247.7" stroke="#132e65" stroke-width="1.5"></path><path d="M1440.84 237.35L1563.06 401.38" stroke="#132e65" stroke-width="1.5"></path><path d="M1418.09 405.14L1418.09 405.14" stroke="#132e65" stroke-width="1.5"></path><path d="M1418.09 405.14L1563.06 401.38" stroke="#132e65" stroke-width="1.5"></path><path d="M1418.09 405.14L1441.66 550.93" stroke="#132e65" stroke-width="1.5"></path><path d="M1441.66 550.93L1441.66 550.93" stroke="#132e65" stroke-width="1.5"></path><path d="M1441.66 550.93L1387.84 653.36" stroke="#132e65" stroke-width="1.5"></path><path d="M1387.84 653.36L1387.84 653.36" stroke="#132e65" stroke-width="1.5"></path><path d="M1387.84 653.36L1573.69 649.23" stroke="#132e65" stroke-width="1.5"></path><path d="M1387.84 653.36L1583.68 560.57" stroke="#132e65" stroke-width="1.5"></path><path d="M1566.89 -56.3L1566.89 -56.3" stroke="#132e65" stroke-width="1.5"></path><path d="M1566.89 -56.3L1562.78 83.03" stroke="#132e65" stroke-width="1.5"></path><path d="M1566.89 -56.3L1602.61 233.36" stroke="#132e65" stroke-width="1.5"></path><path d="M1566.89 -56.3L1277.39 71.32" stroke="#132e65" stroke-width="1.5"></path><path d="M1566.89 -56.3L1440.84 237.35" stroke="#132e65" stroke-width="1.5"></path><path d="M1562.78 83.03L1562.78 83.03" stroke="#132e65" stroke-width="1.5"></path><path d="M1562.78 83.03L1602.61 233.36" stroke="#132e65" stroke-width="1.5"></path><path d="M1602.61 233.36L1602.61 233.36" stroke="#132e65" stroke-width="1.5"></path><path d="M1563.06 401.38L1563.06 401.38" stroke="#132e65" stroke-width="1.5"></path><path d="M1563.06 401.38L1583.68 560.57" stroke="#132e65" stroke-width="1.5"></path><path d="M1563.06 401.38L1602.61 233.36" stroke="#132e65" stroke-width="1.5"></path><path d="M1563.06 401.38L1441.66 550.93" stroke="#132e65" stroke-width="1.5"></path><path d="M1563.06 401.38L1573.69 649.23" stroke="#132e65" stroke-width="1.5"></path><path d="M1583.68 560.57L1583.68 560.57" stroke="#132e65" stroke-width="1.5"></path><path d="M1583.68 560.57L1573.69 649.23" stroke="#132e65" stroke-width="1.5"></path><path d="M1583.68 560.57L1441.66 550.93" stroke="#132e65" stroke-width="1.5"></path><path d="M1573.69 649.23L1573.69 649.23" stroke="#132e65" stroke-width="1.5"></path><path d="M1573.69 649.23L1441.66 550.93" stroke="#132e65" stroke-width="1.5"></path><circle r="5" cx="-38.38" cy="400.81" fill="#132e65"></circle><circle r="5" cx="-45.98" cy="546.06" fill="#132e65"></circle><circle r="5" cx="85.27" cy="395.54" fill="#132e65"></circle><circle r="5" cx="260.74" cy="381.1" fill="#132e65"></circle><circle r="5" cx="190.88" cy="642.66" fill="#132e65"></circle><circle r="5" cx="402.7" cy="353.02" fill="#132e65"></circle><circle r="5" cx="358.24" cy="539.64" fill="#132e65"></circle><circle r="5" cx="371.54" cy="684.53" fill="#132e65"></circle><circle r="5" cx="514.73" cy="368.12" fill="#132e65"></circle><circle r="5" cx="492.91" cy="509.99" fill="#132e65"></circle><circle r="5" cx="543.57" cy="674.66" fill="#132e65"></circle><circle r="5" cx="646.47" cy="254.63" fill="#132e65"></circle><circle r="5" cx="704.39" cy="344.19" fill="#132e65"></circle><circle r="5" cx="655.03" cy="645.5" fill="#132e65"></circle><circle r="5" cx="804.22" cy="228.4" fill="#132e65"></circle><circle r="5" cx="820.6" cy="374.75" fill="#132e65"></circle><circle r="5" cx="800.66" cy="550.33" fill="#132e65"></circle><circle r="5" cx="840.95" cy="664.19" fill="#132e65"></circle><circle r="5" cx="957.35" cy="-91.63" fill="#132e65"></circle><circle r="5" cx="959.3" cy="103.87" fill="#132e65"></circle><circle r="5" cx="943.04" cy="219.54" fill="#132e65"></circle><circle r="5" cx="977.78" cy="345.66" fill="#132e65"></circle><circle r="5" cx="990.48" cy="534.84" fill="#132e65"></circle><circle r="5" cx="994.28" cy="687.77" fill="#132e65"></circle><circle r="5" cx="1106.68" cy="-60.98" fill="#132e65"></circle><circle r="5" cx="1137.94" cy="110.35" fill="#132e65"></circle><circle r="5" cx="1096.17" cy="256.66" fill="#132e65"></circle><circle r="5" cx="1096.54" cy="352.98" fill="#132e65"></circle><circle r="5" cx="1153.85" cy="531.62" fill="#132e65"></circle><circle r="5" cx="1128.37" cy="675.08" fill="#132e65"></circle><circle r="5" cx="1277.39" cy="71.32" fill="#132e65"></circle><circle r="5" cx="1241.2" cy="247.7" fill="#132e65"></circle><circle r="5" cx="1311.55" cy="552.77" fill="#132e65"></circle><circle r="5" cx="1285.88" cy="703.43" fill="#132e65"></circle><circle r="5" cx="1433.72" cy="-77.66" fill="#132e65"></circle><circle r="5" cx="1449.31" cy="50.95" fill="#132e65"></circle><circle r="5" cx="1440.84" cy="237.35" fill="#132e65"></circle><circle r="5" cx="1418.09" cy="405.14" fill="#132e65"></circle><circle r="5" cx="1441.66" cy="550.93" fill="#132e65"></circle><circle r="5" cx="1387.84" cy="653.36" fill="#132e65"></circle><circle r="5" cx="1566.89" cy="-56.3" fill="#132e65"></circle><circle r="5" cx="1562.78" cy="83.03" fill="#132e65"></circle><circle r="5" cx="1602.61" cy="233.36" fill="#132e65"></circle><circle r="5" cx="1563.06" cy="401.38" fill="#132e65"></circle><circle r="5" cx="1583.68" cy="560.57" fill="#132e65"></circle><circle r="5" cx="1573.69" cy="649.23" fill="#132e65"></circle><path d="M110.34 506.45L110.34 506.45" stroke="hsl(228.5, 77.2%, 51.5%)" stroke-width="1.5"></path><path d="M110.34 506.45L190.1 489.82" stroke="hsl(228.5, 77.2%, 51.5%)" stroke-width="1.5"></path><path d="M110.34 506.45L-60.54 547.03" stroke="hsl(228.5, 77.2%, 51.5%)" stroke-width="1.5"></path><path d="M556.78 669.46L556.78 669.46" stroke="hsl(228.5, 77.2%, 51.5%)" stroke-width="1.5"></path><path d="M556.78 669.46L643.42 685.37" stroke="hsl(228.5, 77.2%, 51.5%)" stroke-width="1.5"></path><path d="M556.78 669.46L399.22 704.23" stroke="hsl(228.5, 77.2%, 51.5%)" stroke-width="1.5"></path><path d="M556.78 669.46L666.28 542.72" stroke="hsl(228.5, 77.2%, 51.5%)" stroke-width="1.5"></path><path d="M556.78 669.46L819.6 671.23" stroke="hsl(228.5, 77.2%, 51.5%)" stroke-width="1.5"></path><path d="M646.74 390.02L646.74 390.02" stroke="hsl(228.5, 77.2%, 51.5%)" stroke-width="1.5"></path><path d="M646.74 390.02L791.93 401.31" stroke="hsl(228.5, 77.2%, 51.5%)" stroke-width="1.5"></path><path d="M646.74 390.02L666.28 542.72" stroke="hsl(228.5, 77.2%, 51.5%)" stroke-width="1.5"></path><path d="M646.74 390.02L847.8 535.51" stroke="hsl(228.5, 77.2%, 51.5%)" stroke-width="1.5"></path><path d="M643.42 685.37L643.42 685.37" stroke="hsl(228.5, 77.2%, 51.5%)" stroke-width="1.5"></path><path d="M643.42 685.37L666.28 542.72" stroke="hsl(228.5, 77.2%, 51.5%)" stroke-width="1.5"></path><path d="M643.42 685.37L819.6 671.23" stroke="hsl(228.5, 77.2%, 51.5%)" stroke-width="1.5"></path><path d="M643.42 685.37L399.22 704.23" stroke="hsl(228.5, 77.2%, 51.5%)" stroke-width="1.5"></path><path d="M643.42 685.37L847.8 535.51" stroke="hsl(228.5, 77.2%, 51.5%)" stroke-width="1.5"></path><path d="M968.06 678.42L968.06 678.42" stroke="hsl(228.5, 77.2%, 51.5%)" stroke-width="1.5"></path><path d="M968.06 678.42L819.6 671.23" stroke="hsl(228.5, 77.2%, 51.5%)" stroke-width="1.5"></path><path d="M968.06 678.42L989.53 521.13" stroke="hsl(228.5, 77.2%, 51.5%)" stroke-width="1.5"></path><path d="M968.06 678.42L1132.35 639.9" stroke="hsl(228.5, 77.2%, 51.5%)" stroke-width="1.5"></path><path d="M968.06 678.42L847.8 535.51" stroke="hsl(228.5, 77.2%, 51.5%)" stroke-width="1.5"></path><path d="M968.06 678.42L1095.51 497.84" stroke="hsl(228.5, 77.2%, 51.5%)" stroke-width="1.5"></path><path d="M968.06 678.42L946.85 406.43" stroke="hsl(228.5, 77.2%, 51.5%)" stroke-width="1.5"></path><path d="M1095.51 497.84L1095.51 497.84" stroke="hsl(228.5, 77.2%, 51.5%)" stroke-width="1.5"></path><path d="M1095.51 497.84L1106.39 390.64" stroke="hsl(228.5, 77.2%, 51.5%)" stroke-width="1.5"></path><path d="M1095.51 497.84L989.53 521.13" stroke="hsl(228.5, 77.2%, 51.5%)" stroke-width="1.5"></path><path d="M1095.51 497.84L1132.35 639.9" stroke="hsl(228.5, 77.2%, 51.5%)" stroke-width="1.5"></path><path d="M1095.51 497.84L1259.97 504.5" stroke="hsl(228.5, 77.2%, 51.5%)" stroke-width="1.5"></path><path d="M1095.51 497.84L946.85 406.43" stroke="hsl(228.5, 77.2%, 51.5%)" stroke-width="1.5"></path><path d="M1459.85 521.52L1459.85 521.52" stroke="hsl(228.5, 77.2%, 51.5%)" stroke-width="1.5"></path><path d="M1459.85 521.52L1572.12 499.49" stroke="hsl(228.5, 77.2%, 51.5%)" stroke-width="1.5"></path><path d="M1459.85 521.52L1444.74 651.62" stroke="hsl(228.5, 77.2%, 51.5%)" stroke-width="1.5"></path><path d="M1459.85 521.52L1541.38 649.76" stroke="hsl(228.5, 77.2%, 51.5%)" stroke-width="1.5"></path><path d="M1594.53 -91.24L1594.53 -91.24" stroke="hsl(228.5, 77.2%, 51.5%)" stroke-width="1.5"></path><path d="M1594.53 -91.24L1560.81 80.62" stroke="hsl(228.5, 77.2%, 51.5%)" stroke-width="1.5"></path><path d="M1594.53 -91.24L1418.99 -41.46" stroke="hsl(228.5, 77.2%, 51.5%)" stroke-width="1.5"></path><path d="M1594.53 -91.24L1461.03 105.41" stroke="hsl(228.5, 77.2%, 51.5%)" stroke-width="1.5"></path><path d="M1594.53 -91.24L1566.38 210.57" stroke="hsl(228.5, 77.2%, 51.5%)" stroke-width="1.5"></path><path d="M1594.53 -91.24L1287.23 -80.53" stroke="hsl(228.5, 77.2%, 51.5%)" stroke-width="1.5"></path><path d="M-60.54 547.03L-60.54 547.03" stroke="hsl(228.5, 77.2%, 51.5%)" stroke-width="1.5"></path><path d="M-60.54 547.03L-80.34 704.1" stroke="hsl(228.5, 77.2%, 51.5%)" stroke-width="1.5"></path><path d="M-60.54 547.03L190.1 489.82" stroke="hsl(228.5, 77.2%, 51.5%)" stroke-width="1.5"></path><path d="M-80.34 704.1L-80.34 704.1" stroke="hsl(228.5, 77.2%, 51.5%)" stroke-width="1.5"></path><path d="M-80.34 704.1L110.34 506.45" stroke="hsl(228.5, 77.2%, 51.5%)" stroke-width="1.5"></path><path d="M-80.34 704.1L224.13 664.83" stroke="hsl(228.5, 77.2%, 51.5%)" stroke-width="1.5"></path><path d="M-80.34 704.1L190.1 489.82" stroke="hsl(228.5, 77.2%, 51.5%)" stroke-width="1.5"></path><path d="M-80.34 704.1L338.61 518.2" stroke="hsl(228.5, 77.2%, 51.5%)" stroke-width="1.5"></path><path d="M-80.34 704.1L399.22 704.23" stroke="hsl(228.5, 77.2%, 51.5%)" stroke-width="1.5"></path><path d="M190.1 489.82L190.1 489.82" stroke="hsl(228.5, 77.2%, 51.5%)" stroke-width="1.5"></path><path d="M190.1 489.82L338.61 518.2" stroke="hsl(228.5, 77.2%, 51.5%)" stroke-width="1.5"></path><path d="M224.13 664.83L224.13 664.83" stroke="hsl(228.5, 77.2%, 51.5%)" stroke-width="1.5"></path><path d="M224.13 664.83L190.1 489.82" stroke="hsl(228.5, 77.2%, 51.5%)" stroke-width="1.5"></path><path d="M224.13 664.83L399.22 704.23" stroke="hsl(228.5, 77.2%, 51.5%)" stroke-width="1.5"></path><path d="M338.61 518.2L338.61 518.2" stroke="hsl(228.5, 77.2%, 51.5%)" stroke-width="1.5"></path><path d="M338.61 518.2L224.13 664.83" stroke="hsl(228.5, 77.2%, 51.5%)" stroke-width="1.5"></path><path d="M338.61 518.2L399.22 704.23" stroke="hsl(228.5, 77.2%, 51.5%)" stroke-width="1.5"></path><path d="M338.61 518.2L110.34 506.45" stroke="hsl(228.5, 77.2%, 51.5%)" stroke-width="1.5"></path><path d="M338.61 518.2L556.78 669.46" stroke="hsl(228.5, 77.2%, 51.5%)" stroke-width="1.5"></path><path d="M338.61 518.2L666.28 542.72" stroke="hsl(228.5, 77.2%, 51.5%)" stroke-width="1.5"></path><path d="M399.22 704.23L399.22 704.23" stroke="hsl(228.5, 77.2%, 51.5%)" stroke-width="1.5"></path><path d="M666.28 542.72L666.28 542.72" stroke="hsl(228.5, 77.2%, 51.5%)" stroke-width="1.5"></path><path d="M666.28 542.72L847.8 535.51" stroke="hsl(228.5, 77.2%, 51.5%)" stroke-width="1.5"></path><path d="M791.93 401.31L791.93 401.31" stroke="hsl(228.5, 77.2%, 51.5%)" stroke-width="1.5"></path><path d="M791.93 401.31L847.8 535.51" stroke="hsl(228.5, 77.2%, 51.5%)" stroke-width="1.5"></path><path d="M791.93 401.31L946.85 406.43" stroke="hsl(228.5, 77.2%, 51.5%)" stroke-width="1.5"></path><path d="M791.93 401.31L666.28 542.72" stroke="hsl(228.5, 77.2%, 51.5%)" stroke-width="1.5"></path><path d="M847.8 535.51L847.8 535.51" stroke="hsl(228.5, 77.2%, 51.5%)" stroke-width="1.5"></path><path d="M847.8 535.51L819.6 671.23" stroke="hsl(228.5, 77.2%, 51.5%)" stroke-width="1.5"></path><path d="M847.8 535.51L989.53 521.13" stroke="hsl(228.5, 77.2%, 51.5%)" stroke-width="1.5"></path><path d="M819.6 671.23L819.6 671.23" stroke="hsl(228.5, 77.2%, 51.5%)" stroke-width="1.5"></path><path d="M819.6 671.23L666.28 542.72" stroke="hsl(228.5, 77.2%, 51.5%)" stroke-width="1.5"></path><path d="M819.6 671.23L989.53 521.13" stroke="hsl(228.5, 77.2%, 51.5%)" stroke-width="1.5"></path><path d="M946.85 406.43L946.85 406.43" stroke="hsl(228.5, 77.2%, 51.5%)" stroke-width="1.5"></path><path d="M946.85 406.43L989.53 521.13" stroke="hsl(228.5, 77.2%, 51.5%)" stroke-width="1.5"></path><path d="M946.85 406.43L1106.39 390.64" stroke="hsl(228.5, 77.2%, 51.5%)" stroke-width="1.5"></path><path d="M946.85 406.43L847.8 535.51" stroke="hsl(228.5, 77.2%, 51.5%)" stroke-width="1.5"></path><path d="M989.53 521.13L989.53 521.13" stroke="hsl(228.5, 77.2%, 51.5%)" stroke-width="1.5"></path><path d="M1136.78 213.58L1136.78 213.58" stroke="hsl(228.5, 77.2%, 51.5%)" stroke-width="1.5"></path><path d="M1136.78 213.58L1282.43 192.81" stroke="hsl(228.5, 77.2%, 51.5%)" stroke-width="1.5"></path><path d="M1136.78 213.58L1245.22 96.34" stroke="hsl(228.5, 77.2%, 51.5%)" stroke-width="1.5"></path><path d="M1136.78 213.58L1106.39 390.64" stroke="hsl(228.5, 77.2%, 51.5%)" stroke-width="1.5"></path><path d="M1136.78 213.58L1241.85 386.9" stroke="hsl(228.5, 77.2%, 51.5%)" stroke-width="1.5"></path><path d="M1136.78 213.58L946.85 406.43" stroke="hsl(228.5, 77.2%, 51.5%)" stroke-width="1.5"></path><path d="M1136.78 213.58L1095.51 497.84" stroke="hsl(228.5, 77.2%, 51.5%)" stroke-width="1.5"></path><path d="M1106.39 390.64L1106.39 390.64" stroke="hsl(228.5, 77.2%, 51.5%)" stroke-width="1.5"></path><path d="M1106.39 390.64L1241.85 386.9" stroke="hsl(228.5, 77.2%, 51.5%)" stroke-width="1.5"></path><path d="M1106.39 390.64L989.53 521.13" stroke="hsl(228.5, 77.2%, 51.5%)" stroke-width="1.5"></path><path d="M1106.39 390.64L1259.97 504.5" stroke="hsl(228.5, 77.2%, 51.5%)" stroke-width="1.5"></path><path d="M1132.35 639.9L1132.35 639.9" stroke="hsl(228.5, 77.2%, 51.5%)" stroke-width="1.5"></path><path d="M1132.35 639.9L989.53 521.13" stroke="hsl(228.5, 77.2%, 51.5%)" stroke-width="1.5"></path><path d="M1132.35 639.9L1259.97 504.5" stroke="hsl(228.5, 77.2%, 51.5%)" stroke-width="1.5"></path><path d="M1132.35 639.9L1106.39 390.64" stroke="hsl(228.5, 77.2%, 51.5%)" stroke-width="1.5"></path><path d="M1287.23 -80.53L1287.23 -80.53" stroke="hsl(228.5, 77.2%, 51.5%)" stroke-width="1.5"></path><path d="M1287.23 -80.53L1418.99 -41.46" stroke="hsl(228.5, 77.2%, 51.5%)" stroke-width="1.5"></path><path d="M1287.23 -80.53L1245.22 96.34" stroke="hsl(228.5, 77.2%, 51.5%)" stroke-width="1.5"></path><path d="M1287.23 -80.53L1461.03 105.41" stroke="hsl(228.5, 77.2%, 51.5%)" stroke-width="1.5"></path><path d="M1245.22 96.34L1245.22 96.34" stroke="hsl(228.5, 77.2%, 51.5%)" stroke-width="1.5"></path><path d="M1245.22 96.34L1282.43 192.81" stroke="hsl(228.5, 77.2%, 51.5%)" stroke-width="1.5"></path><path d="M1282.43 192.81L1282.43 192.81" stroke="hsl(228.5, 77.2%, 51.5%)" stroke-width="1.5"></path><path d="M1241.85 386.9L1241.85 386.9" stroke="hsl(228.5, 77.2%, 51.5%)" stroke-width="1.5"></path><path d="M1241.85 386.9L1259.97 504.5" stroke="hsl(228.5, 77.2%, 51.5%)" stroke-width="1.5"></path><path d="M1241.85 386.9L1389.47 376.56" stroke="hsl(228.5, 77.2%, 51.5%)" stroke-width="1.5"></path><path d="M1259.97 504.5L1259.97 504.5" stroke="hsl(228.5, 77.2%, 51.5%)" stroke-width="1.5"></path><path d="M1259.97 504.5L1389.47 376.56" stroke="hsl(228.5, 77.2%, 51.5%)" stroke-width="1.5"></path><path d="M1418.99 -41.46L1418.99 -41.46" stroke="hsl(228.5, 77.2%, 51.5%)" stroke-width="1.5"></path><path d="M1418.99 -41.46L1461.03 105.41" stroke="hsl(228.5, 77.2%, 51.5%)" stroke-width="1.5"></path><path d="M1418.99 -41.46L1560.81 80.62" stroke="hsl(228.5, 77.2%, 51.5%)" stroke-width="1.5"></path><path d="M1418.99 -41.46L1245.22 96.34" stroke="hsl(228.5, 77.2%, 51.5%)" stroke-width="1.5"></path><path d="M1418.99 -41.46L1282.43 192.81" stroke="hsl(228.5, 77.2%, 51.5%)" stroke-width="1.5"></path><path d="M1461.03 105.41L1461.03 105.41" stroke="hsl(228.5, 77.2%, 51.5%)" stroke-width="1.5"></path><path d="M1461.03 105.41L1560.81 80.62" stroke="hsl(228.5, 77.2%, 51.5%)" stroke-width="1.5"></path><path d="M1461.03 105.41L1566.38 210.57" stroke="hsl(228.5, 77.2%, 51.5%)" stroke-width="1.5"></path><path d="M1389.47 376.56L1389.47 376.56" stroke="hsl(228.5, 77.2%, 51.5%)" stroke-width="1.5"></path><path d="M1389.47 376.56L1459.85 521.52" stroke="hsl(228.5, 77.2%, 51.5%)" stroke-width="1.5"></path><path d="M1389.47 376.56L1567.75 360.87" stroke="hsl(228.5, 77.2%, 51.5%)" stroke-width="1.5"></path><path d="M1444.74 651.62L1444.74 651.62" stroke="hsl(228.5, 77.2%, 51.5%)" stroke-width="1.5"></path><path d="M1444.74 651.62L1541.38 649.76" stroke="hsl(228.5, 77.2%, 51.5%)" stroke-width="1.5"></path><path d="M1444.74 651.62L1572.12 499.49" stroke="hsl(228.5, 77.2%, 51.5%)" stroke-width="1.5"></path><path d="M1444.74 651.62L1259.97 504.5" stroke="hsl(228.5, 77.2%, 51.5%)" stroke-width="1.5"></path><path d="M1444.74 651.62L1389.47 376.56" stroke="hsl(228.5, 77.2%, 51.5%)" stroke-width="1.5"></path><path d="M1560.81 80.62L1560.81 80.62" stroke="hsl(228.5, 77.2%, 51.5%)" stroke-width="1.5"></path><path d="M1560.81 80.62L1566.38 210.57" stroke="hsl(228.5, 77.2%, 51.5%)" stroke-width="1.5"></path><path d="M1566.38 210.57L1566.38 210.57" stroke="hsl(228.5, 77.2%, 51.5%)" stroke-width="1.5"></path><path d="M1566.38 210.57L1567.75 360.87" stroke="hsl(228.5, 77.2%, 51.5%)" stroke-width="1.5"></path><path d="M1566.38 210.57L1389.47 376.56" stroke="hsl(228.5, 77.2%, 51.5%)" stroke-width="1.5"></path><path d="M1566.38 210.57L1282.43 192.81" stroke="hsl(228.5, 77.2%, 51.5%)" stroke-width="1.5"></path><path d="M1567.75 360.87L1567.75 360.87" stroke="hsl(228.5, 77.2%, 51.5%)" stroke-width="1.5"></path><path d="M1567.75 360.87L1572.12 499.49" stroke="hsl(228.5, 77.2%, 51.5%)" stroke-width="1.5"></path><path d="M1567.75 360.87L1459.85 521.52" stroke="hsl(228.5, 77.2%, 51.5%)" stroke-width="1.5"></path><path d="M1567.75 360.87L1461.03 105.41" stroke="hsl(228.5, 77.2%, 51.5%)" stroke-width="1.5"></path><path d="M1572.12 499.49L1572.12 499.49" stroke="hsl(228.5, 77.2%, 51.5%)" stroke-width="1.5"></path><path d="M1572.12 499.49L1541.38 649.76" stroke="hsl(228.5, 77.2%, 51.5%)" stroke-width="1.5"></path><path d="M1572.12 499.49L1389.47 376.56" stroke="hsl(228.5, 77.2%, 51.5%)" stroke-width="1.5"></path><path d="M1572.12 499.49L1566.38 210.57" stroke="hsl(228.5, 77.2%, 51.5%)" stroke-width="1.5"></path><path d="M1541.38 649.76L1541.38 649.76" stroke="hsl(228.5, 77.2%, 51.5%)" stroke-width="1.5"></path><path d="M1541.38 649.76L1567.75 360.87" stroke="hsl(228.5, 77.2%, 51.5%)" stroke-width="1.5"></path><path d="M1541.38 649.76L1389.47 376.56" stroke="hsl(228.5, 77.2%, 51.5%)" stroke-width="1.5"></path><path d="M1541.38 649.76L1259.97 504.5" stroke="hsl(228.5, 77.2%, 51.5%)" stroke-width="1.5"></path><circle r="25" cx="110.34" cy="506.45" fill="url(#SvgjsRadialGradient1007)"></circle><circle r="25" cx="556.78" cy="669.46" fill="url(#SvgjsRadialGradient1007)"></circle><circle r="25" cx="646.74" cy="390.02" fill="url(#SvgjsRadialGradient1007)"></circle><circle r="25" cx="643.42" cy="685.37" fill="url(#SvgjsRadialGradient1007)"></circle><circle r="25" cx="968.06" cy="678.42" fill="url(#SvgjsRadialGradient1007)"></circle><circle r="25" cx="1095.51" cy="497.84" fill="url(#SvgjsRadialGradient1007)"></circle><circle r="25" cx="1459.85" cy="521.52" fill="url(#SvgjsRadialGradient1007)"></circle><circle r="25" cx="1594.53" cy="-91.24" fill="url(#SvgjsRadialGradient1007)"></circle><circle r="5" cx="-60.54" cy="547.03" fill="#8b9ad9"></circle><circle r="5" cx="-80.34" cy="704.1" fill="#8b9ad9"></circle><circle r="5" cx="190.1" cy="489.82" fill="#8b9ad9"></circle><circle r="5" cx="224.13" cy="664.83" fill="#8b9ad9"></circle><circle r="5" cx="338.61" cy="518.2" fill="#8b9ad9"></circle><circle r="5" cx="399.22" cy="704.23" fill="#8b9ad9"></circle><circle r="5" cx="666.28" cy="542.72" fill="#8b9ad9"></circle><circle r="5" cx="791.93" cy="401.31" fill="#8b9ad9"></circle><circle r="5" cx="847.8" cy="535.51" fill="#8b9ad9"></circle><circle r="5" cx="819.6" cy="671.23" fill="#8b9ad9"></circle><circle r="5" cx="946.85" cy="406.43" fill="#8b9ad9"></circle><circle r="5" cx="989.53" cy="521.13" fill="#8b9ad9"></circle><circle r="5" cx="1136.78" cy="213.58" fill="#8b9ad9"></circle><circle r="5" cx="1106.39" cy="390.64" fill="#8b9ad9"></circle><circle r="5" cx="1132.35" cy="639.9" fill="#8b9ad9"></circle><circle r="5" cx="1287.23" cy="-80.53" fill="#8b9ad9"></circle><circle r="5" cx="1245.22" cy="96.34" fill="#8b9ad9"></circle><circle r="5" cx="1282.43" cy="192.81" fill="#8b9ad9"></circle><circle r="5" cx="1241.85" cy="386.9" fill="#8b9ad9"></circle><circle r="5" cx="1259.97" cy="504.5" fill="#8b9ad9"></circle><circle r="5" cx="1418.99" cy="-41.46" fill="#8b9ad9"></circle><circle r="5" cx="1461.03" cy="105.41" fill="#8b9ad9"></circle><circle r="5" cx="1389.47" cy="376.56" fill="#8b9ad9"></circle><circle r="5" cx="1444.74" cy="651.62" fill="#8b9ad9"></circle><circle r="5" cx="1560.81" cy="80.62" fill="#8b9ad9"></circle><circle r="5" cx="1566.38" cy="210.57" fill="#8b9ad9"></circle><circle r="5" cx="1567.75" cy="360.87" fill="#8b9ad9"></circle><circle r="5" cx="1572.12" cy="499.49" fill="#8b9ad9"></circle><circle r="5" cx="1541.38" cy="649.76" fill="#8b9ad9"></circle></g><defs><mask id="SvgjsMask1005"><rect width="1440" height="560" fill="#ffffff"></rect></mask><linearGradient x1="15.28%" y1="-39.29%" x2="84.72%" y2="139.29%" gradientUnits="userSpaceOnUse" id="SvgjsLinearGradient1006"><stop stop-color="#0e2a47" offset="0"></stop><stop stop-color="#00459e" offset="1"></stop></linearGradient><radialGradient id="SvgjsRadialGradient1007"><stop stop-color="#ffffff" offset="0.1"></stop><stop stop-color="#1735b3" offset="0.2"></stop><stop stop-color="rgba(23, 53, 179, 0)" offset="1"></stop></radialGradient></defs></svg>