<svg xmlns="http://www.w3.org/2000/svg" version="1.1" xmlns:xlink="http://www.w3.org/1999/xlink" xmlns:svgjs="http://svgjs.com/svgjs" width="1440" height="560" preserveAspectRatio="none" viewBox="0 0 1440 560"><g mask="url(&quot;#SvgjsMask1000&quot;)" fill="none"><rect width="1440" height="560" x="0" y="0" fill="#0e2a47"></rect><path d="M0,424.95C84.876,433.641,169.915,420.537,247.623,385.309C334.006,346.148,430.505,300.813,466.967,213.257C503.278,126.062,452.25,30.278,434.07,-62.41C416.902,-149.938,411.427,-239.721,363.378,-314.869C310.517,-397.543,247.018,-500.657,149.164,-508.004C48.259,-515.58,-14.092,-398.677,-102.73,-349.866C-167.423,-314.241,-240.602,-303.587,-300.501,-260.386C-374.556,-206.975,-483.693,-161.548,-490.119,-70.468C-496.66,22.238,-381.164,73.227,-329.489,150.472C-288.169,212.237,-274.14,290.163,-217.044,337.727C-155.898,388.664,-79.169,416.843,0,424.95" fill="#0b2239"></path><path d="M1440 1099.934C1556.997 1111.749 1686.488 1161.047 1785.624 1097.801 1884.766 1034.5520000000001 1875.362 887.625 1933.246 785.258 1998.681 669.538 2155.7 590.985 2147.224 458.317 2138.844 327.15999999999997 1987.257 259.172 1893.734 166.837 1808.03 82.221 1736.7-23.134000000000015 1622.091-60.14599999999996 1506.198-97.57299999999998 1377.128-83.601 1264.931-36.23199999999997 1159.059 8.466000000000008 1082.867 99.55200000000002 1018.4359999999999 194.71300000000002 959.6469999999999 281.542 937.966 382.429 912.582 484.169 884.256 597.699 817.109 715.936 861.363 824.255 905.745 932.886 1030.566 981.778 1136.504 1032.25 1232.011 1077.7530000000002 1334.742 1089.3049999999998 1440 1099.934" fill="#113255"></path></g><defs><mask id="SvgjsMask1000"><rect width="1440" height="560" fill="#ffffff"></rect></mask></defs></svg>