<svg xmlns="http://www.w3.org/2000/svg" version="1.1" xmlns:xlink="http://www.w3.org/1999/xlink" xmlns:svgjs="http://svgjs.com/svgjs" width="1440" height="560" preserveAspectRatio="none" viewBox="0 0 1440 560"><g mask="url(&quot;#SvgjsMask1046&quot;)" fill="none"><rect width="1440" height="560" x="0" y="0" fill="rgba(11, 101, 117, 1)"></rect><path d="M0,450.039C82.994,452.325,146.336,381.203,214.829,334.28C281.225,288.793,353.192,249.283,394.16,180.007C437.682,106.413,455.074,20.574,450.848,-64.822C446.342,-155.874,441.936,-264.861,369.414,-320.099C295.852,-376.129,187.958,-312.385,97.957,-333.61C15.462,-353.065,-44.798,-451.064,-128.466,-437.514C-211.693,-424.035,-268.347,-341.598,-308.955,-267.711C-345.174,-201.811,-325.554,-122.556,-341.906,-49.159C-360.126,32.62,-438.86,108.616,-410.35,187.4C-382.11,265.436,-277.254,277.915,-207.356,322.652C-137.62,367.286,-82.766,447.759,0,450.039" fill="#07424c"></path><path d="M1440 1006.579C1524.847 997.608 1601.445 966.929 1679.763 933.079 1773.249 892.672 1896.455 880.331 1942.393 789.435 1988.217 698.765 1919.5439999999999 593.636 1901.877 493.592 1884.878 397.331 1897.8519999999999 292.11 1840.579 212.89600000000002 1781.438 131.098 1685.391 82.12200000000001 1587.267 58.45400000000001 1491.853 35.440000000000055 1391.01 46.254999999999995 1299.78 82.45499999999998 1213.483 116.69799999999998 1149.7069999999999 185.613 1089.2440000000001 256.069 1029.0430000000001 326.219 968.759 399.009 950.3779999999999 489.603 931.423 583.024 947.684 680.061 985.461 767.581 1023.76 856.3109999999999 1079.738 942.5 1165.277 987.477 1248.205 1031.0810000000001 1346.826 1016.431 1440 1006.579" fill="#0f889e"></path></g><defs><mask id="SvgjsMask1046"><rect width="1440" height="560" fill="#ffffff"></rect></mask></defs></svg>