<svg xmlns="http://www.w3.org/2000/svg" version="1.1" xmlns:xlink="http://www.w3.org/1999/xlink" xmlns:svgjs="http://svgjs.com/svgjs" width="1440" height="560" preserveAspectRatio="none" viewBox="0 0 1440 560"><g mask="url(&quot;#SvgjsMask1227&quot;)" fill="none"><rect width="1440" height="560" x="0" y="0" fill="rgba(141, 222, 222, 1)"></rect><path d="M0,710.36C130.253,680.672,172.563,514.836,278.857,433.91C372.906,362.307,513.897,362.093,583.206,266.341C657.005,164.384,688.256,27.899,661.811,-95.154C635.913,-215.664,524.99,-291.816,443.399,-384.207C362.667,-475.626,305.645,-609.615,186.108,-633.827C66.587,-658.036,-33.963,-547.236,-147.986,-503.993C-251.115,-464.881,-371.134,-466.639,-452.132,-391.774C-536.929,-313.398,-570.665,-197.956,-599.941,-86.259C-632.316,37.26,-671.017,166.818,-630.258,287.829C-587.861,413.703,-484.895,508.882,-374.571,582.844C-262.754,657.807,-131.254,740.276,0,710.36" fill="#4ccbcb"></path><path d="M1440 938.111C1509.607 941.731 1547.547 856.171 1604.675 816.239 1658.904 778.3340000000001 1741.372 770.34 1767.1770000000001 709.417 1793.0059999999999 648.437 1747.0059999999999 582.414 1730.925 518.171 1716.652 461.148 1711.664 401.938 1678.127 353.66200000000003 1642.201 301.946 1594.671 256.544 1535.067 236.231 1474.228 215.497 1407.224 220.36399999999998 1346.1970000000001 240.53699999999998 1286.409 260.3 1229.433 295.16 1195.782 348.384 1164.016 398.627 1180.045 462.634 1168.863 521.016 1156.9560000000001 583.182 1103.43 644.154 1127.954 702.506 1152.407 760.688 1235.608 761.638 1285.976 799.667 1342.208 842.124 1369.635 934.452 1440 938.111" fill="#cef1f1"></path></g><defs><mask id="SvgjsMask1227"><rect width="1440" height="560" fill="#ffffff"></rect></mask></defs></svg>