<svg xmlns="http://www.w3.org/2000/svg" version="1.1" xmlns:xlink="http://www.w3.org/1999/xlink" xmlns:svgjs="http://svgjs.com/svgjs" width="1440" height="560" preserveAspectRatio="none" viewBox="0 0 1440 560"><g mask="url(&quot;#SvgjsMask1229&quot;)" fill="none"><rect width="1440" height="560" x="0" y="0" fill="rgba(141, 222, 222, 1)"></rect><path d="M0,439.289C81.784,441.086,157.771,395.452,220.072,342.438C277.518,293.555,297.022,218.034,335.944,153.421C380.96,78.691,462.217,20.009,466.778,-67.113C471.531,-157.906,415.09,-239.65,360.321,-312.219C302.612,-388.684,237.744,-469.865,144.925,-493.571C52.943,-517.064,-40.584,-473.281,-128.321,-437.02C-208.417,-403.917,-282.905,-359.807,-338.863,-293.627C-394.366,-227.985,-439.725,-149.682,-443.877,-63.82C-447.874,18.839,-402.535,93.281,-361.037,164.88C-322.939,230.613,-274.43,286.926,-213.942,332.9C-149.223,382.09,-81.271,437.503,0,439.289" fill="#4ccbcb"></path><path d="M1440 885.018C1514.031 879.937 1589.531 928.0830000000001 1657.676 898.711 1728.547 868.164 1766.261 793.284 1806.133 727.208 1850.538 653.62 1903.796 579.482 1902.16 493.551 1900.446 403.50800000000004 1858.013 316.903 1797.062 250.60399999999998 1737.034 185.308 1652.578 150.66699999999997 1566.666 128.61700000000002 1482.952 107.13099999999997 1391.344 90.54899999999998 1312.647 126.27600000000001 1236.917 160.656 1194.246 240.36599999999999 1156.862 314.65999999999997 1125.846 376.299 1123.605 444.91200000000003 1117.719 513.663 1112.1770000000001 578.4 1110.555 640.874 1123.482 704.549 1139.645 784.165 1131.659 889.7339999999999 1202.233 929.973 1273.752 970.751 1357.866 890.656 1440 885.018" fill="#cef1f1"></path></g><defs><mask id="SvgjsMask1229"><rect width="1440" height="560" fill="#ffffff"></rect></mask></defs></svg>